<?xml version="1.0" encoding="UTF-8"?>
<svg xmlns="http://www.w3.org/2000/svg" viewBox="0 0 165.69 30.15" role="img" aria-labelledby="title">
  <title id="title">AxisRay Lab</title>
  <defs>
    <style>
      .logo-white { fill: #fff; }
      .logo-white, .logo-pink { stroke-width: 0; }
      .logo-pink { fill: #e6227b; }
    </style>
  </defs>
  <g>
    <path class="logo-white" d="M28.9,25.55c-1.17,1.69-2.64,3.17-4.33,4.36-.46.33-1.09.27-1.49-.13l-5.57-5.57c-1.62-1.62-4.24-1.62-5.85,0l-5.6,5.6c-.4.4-1.03.46-1.49.13-1.69-1.18-3.16-2.66-4.34-4.35-.32-.46-.26-1.09.13-1.49l7-7c.8-.8.8-2.11,0-2.91L.34,7.17c-.4-.4-.45-1.02-.13-1.49C1.38,3.99,2.85,2.51,4.54,1.32c.46-.33,1.09-.27,1.49.13l6.81,6.81c.22.22.34.51.34.82v9.56c0,.57.47,1.04,1.04,1.04h.68c.57,0,1.04-.47,1.04-1.04v-9.63c0-.31.12-.6.34-.82l6.77-6.77c.4-.4,1.03-.45,1.49-.13,1.69,1.18,3.16,2.65,4.34,4.34.32.46.27,1.09-.13,1.49l-7,7c-.8.8-.8,2.11,0,2.9l7.03,7.03c.4.4.45,1.02.13,1.49h0Z"/>
    <path class="logo-pink" d="M19.24,1.66l-1.8,2.01c-.14.16-.36.22-.56.18-.76-.17-1.55-.26-2.33-.26s-1.57.09-2.33.26c-.21.05-.42-.02-.56-.18l-1.8-2.01c-.28-.31-.14-.81.25-.94,1.43-.47,2.92-.72,4.43-.72s3.01.24,4.44.72c.4.13.53.63.25.94h.01Z"/>
    <g>
      <path class="logo-white" d="M165.69,12.05c0-1.82-1.48-3.29-3.29-3.29h-8.78v11.51h8.78c1.81,0,3.29-1.47,3.29-3.29v-.13c0-.91-.38-1.74-.98-2.33.6-.6.98-1.43.98-2.34v-.13ZM163.76,12.12c0,.78-.64,1.42-1.42,1.42h-6.79v-2.84h6.79c.78,0,1.42.64,1.42,1.42ZM162.34,18.34h-6.79v-2.84h6.79c.78,0,1.42.64,1.42,1.42s-.64,1.42-1.42,1.42Z"/>
      <path class="logo-white" d="M148.34,8.76h-4.94c-1.99,0-3.59,1.61-3.59,3.59v7.91h2.11v-4.31h7.9v4.31h2.11v-7.91c0-1.99-1.61-3.59-3.59-3.59ZM141.92,13.84v-1.18c0-.99.8-1.8,1.8-1.8h4.3c.99,0,1.8.8,1.8,1.8v1.18h-7.9Z"/>
      <path class="logo-white" d="M138.26,20.27h-8.31c-1.99,0-3.59-1.61-3.59-3.59v-7.96h2.11v7.65c0,.99.8,1.8,1.8,1.8h8v2.11h-.01Z"/>
      <path class="logo-white" d="M73.98,20.32h-8.15v-2.11h8.15c.72,0,1.3-.58,1.3-1.3s-.58-1.3-1.3-1.3h-5.41c-1.88,0-3.41-1.53-3.41-3.41s1.53-3.41,3.41-3.41h7.92v2.11h-7.92c-.72,0-1.3.58-1.3,1.3s.58,1.3,1.3,1.3h5.41c1.88,0,3.41,1.53,3.41,3.41s-1.53,3.41-3.41,3.41Z"/>
      <rect class="logo-white" x="61.4" y="8.66" width="2.11" height="11.65"/>
      <path class="logo-white" d="M42.63,8.8h-4.94c-1.99,0-3.59,1.61-3.59,3.59v7.91h2.11v-4.31h7.9v4.31h2.11v-7.91c0-1.99-1.61-3.59-3.59-3.59ZM36.21,13.88v-1.18c0-.99.8-1.8,1.8-1.8h4.3c.99,0,1.8.8,1.8,1.8v1.18h-7.9Z"/>
      <path class="logo-white" d="M100.92,8.8h-4.94c-1.99,0-3.59,1.61-3.59,3.59v7.91h2.11v-4.31h7.9v4.31h2.11v-7.91c0-1.99-1.61-3.59-3.59-3.59ZM94.5,13.88v-1.18c0-.99.8-1.8,1.8-1.8h4.3c.99,0,1.8.8,1.8,1.8v1.18h-7.9Z"/>
      <path class="logo-white" d="M59.49,10.79l-2.31,3.74,2.31,3.74c.18.28.27.61.27.94v1.08h-2.11v-.48c0-.33-.1-.66-.27-.94l-1.94-3.15h-3.27l-1.94,3.15c-.18.28-.27.61-.27.94v.48h-2.11v-1.08c0-.33.1-.66.27-.94l2.31-3.75-2.31-3.75c-.17-.28-.27-.61-.27-.94v-1.08h2.11v.48c0,.33.09.66.27.94l1.94,3.15h3.27l1.94-3.15c.17-.28.27-.61.27-.94v-.48h2.11v1.08c0,.33-.09.66-.27.94Z"/>
      <path class="logo-white" d="M118.33,8.77v1.13c0,.67-.29,1.31-.78,1.76l-4.26,3.91v4.74h-2.11v-4.74l-4.26-3.91c-.49-.45-.78-1.09-.78-1.76v-1.13h2.11v.47c0,.5.21.98.58,1.32l3.41,3.12,3.4-3.12c.37-.34.58-.82.58-1.32v-.47h2.11Z"/>
      <path class="logo-white" d="M90.76,12.44v-.14c0-1.94-1.57-3.51-3.51-3.51h-8.22v11.53h2.06v-4.37h2.46l4.31,4.37h2.89l-4.31-4.37h.81c1.94,0,3.51-1.57,3.51-3.51ZM81.09,13.88v-3.02h6.09c.83,0,1.51.67,1.51,1.51s-.67,1.51-1.51,1.51h-6.09Z"/>
    </g>
  </g>
</svg>
